<?xml version="1.0" encoding="UTF-8" standalone="no"?>
<svg
   xmlns:dc="http://purl.org/dc/elements/1.1/"
   xmlns:cc="http://creativecommons.org/ns#"
   xmlns:rdf="http://www.w3.org/1999/02/22-rdf-syntax-ns#"
   xmlns:svg="http://www.w3.org/2000/svg"
   xmlns="http://www.w3.org/2000/svg"
   xmlns:sodipodi="http://sodipodi.sourceforge.net/DTD/sodipodi-0.dtd"
   xmlns:inkscape="http://www.inkscape.org/namespaces/inkscape"
   width="618"
   height="154"
   viewBox="0 0 163.51249 40.745833"
   version="1.1"
   id="svg8"
   inkscape:version="1.0.1 (3bc2e813f5, 2020-09-07)"
   sodipodi:docname="hand_hand.svg"
   inkscape:export-filename="C:\Users\RoosRA\Source\Biomechantronics\biomechatronics-scope\images\hand_hand.png"
   inkscape:export-xdpi="180"
   inkscape:export-ydpi="180">
  <defs
     id="defs2" />
  <sodipodi:namedview
     id="base"
     pagecolor="#ffffff"
     bordercolor="#666666"
     borderopacity="1.0"
     inkscape:pageopacity="0.0"
     inkscape:pageshadow="2"
     inkscape:zoom="1.979899"
     inkscape:cx="284.28978"
     inkscape:cy="36.827997"
     inkscape:document-units="px"
     inkscape:current-layer="layer1"
     inkscape:document-rotation="0"
     showgrid="false"
     units="px"
     height="1000mm"
     borderlayer="true"
     inkscape:showpageshadow="false"
     inkscape:window-width="2560"
     inkscape:window-height="1361"
     inkscape:window-x="1911"
     inkscape:window-y="-9"
     inkscape:window-maximized="1"
     fit-margin-top="0"
     fit-margin-left="0"
     fit-margin-right="0"
     fit-margin-bottom="0" />
  <metadata
     id="metadata5">
    <rdf:RDF>
      <cc:Work
         rdf:about="">
        <dc:format>image/svg+xml</dc:format>
        <dc:type
           rdf:resource="http://purl.org/dc/dcmitype/StillImage" />
        <dc:title />
      </cc:Work>
    </rdf:RDF>
  </metadata>
  <g
     inkscape:label="Layer 1"
     inkscape:groupmode="layer"
     id="layer1"
     transform="translate(-42.634207,-160.43807)">
    <g
       id="g873"
       inkscape:transform-center-x="-73.842661"
       inkscape:transform-center-y="-1.9940664"
       transform="rotate(6.8607421,-403.8287,-100.38424)">
      <path
         style="fill:#00c1ff;fill-opacity:1;stroke:#1b1b1b;stroke-width:0.529167;stroke-linecap:butt;stroke-linejoin:miter;stroke-miterlimit:4;stroke-dasharray:none;stroke-opacity:1"
         d="m 160.63988,108.95163 26.74181,-4.6302 c 0,0 -0.3116,-1.95015 -0.85044,-2.74033 -0.56814,-0.83315 -1.42304,-1.52296 -2.36235,-1.889882 -1.67644,-0.654864 -3.58863,-0.468212 -5.38617,-0.377976 -2.96861,0.149023 -5.85302,1.041678 -8.78794,1.511908 -4.02459,0.64481 -8.03038,1.49534 -12.09524,1.79538 -0.91097,0.0672 -2.74033,0 -2.74033,0 z"
         id="path860"
         sodipodi:nodetypes="ccaaaaacc" />
      <path
         style="fill:#00c1ff;fill-opacity:1;stroke:#1b1b1b;stroke-width:0.529167;stroke-linecap:butt;stroke-linejoin:miter;stroke-miterlimit:4;stroke-dasharray:none;stroke-opacity:1"
         d="m 170.18378,112.7314 49.42038,-5.48066 c 0,0 0.0705,-3.21195 -0.56696,-4.63021 -0.58551,-1.30268 -1.59433,-2.50499 -2.83482,-3.212795 -1.30918,-0.746997 -2.93589,-0.927479 -4.44122,-0.850445 -2.29894,0.117645 -4.3748,1.45309 -6.61459,1.98438 -5.47701,1.29918 -11.06858,2.06587 -16.63095,2.92931 -3.73723,0.58013 -7.46771,1.70449 -11.24479,1.5119 -1.61752,-0.0825 -3.10739,-1.0475 -4.7247,-1.13392 -4.40849,-0.23556 -13.13467,1.70089 -13.13467,1.70089 z"
         id="path858"
         sodipodi:nodetypes="ccaaaaaaacc" />
      <path
         style="fill:#00c1ff;fill-opacity:1;stroke:#1b1b1b;stroke-width:0.529167;stroke-linecap:butt;stroke-linejoin:miter;stroke-miterlimit:4;stroke-dasharray:none;stroke-opacity:1"
         d="m 166.40402,119.81845 c 0,0 41.14826,-4.55327 61.7991,-5.85863 1.98142,-0.12525 5.95313,-0.18899 5.95313,-0.18899 0,0 1.64026,-3.2134 1.22842,-4.8192 -0.49273,-1.9212 -2.26148,-3.51762 -4.06325,-4.34672 -1.97622,-0.90938 -4.34499,-0.2462 -6.52009,-0.28348 -3.43292,-0.0588 -6.87424,-0.1371 -10.29985,0.0945 -5.25834,0.35551 -10.4261,1.65299 -15.68601,1.98438 -4.43243,0.27925 -9.01504,-1.07715 -13.32366,0 -0.51948,0.12987 -0.89582,0.63483 -1.41741,0.75595 -7.30634,1.69669 -22.48958,-0.75595 -22.48958,-0.75595 z"
         id="path856"
         sodipodi:nodetypes="cacaaaaaaacc" />
      <path
         id="path850"
         style="fill:#00c1ff;fill-opacity:1;stroke:#1b1b1b;stroke-width:2;stroke-linecap:butt;stroke-linejoin:miter;stroke-miterlimit:4;stroke-dasharray:none;stroke-opacity:1"
         d="m 512.39258,378.11523 c -14.38123,-0.0792 -28.77237,0.4299 -43.14063,1.02344 -17.56615,0.72563 -35.10256,2.13357 -52.61523,3.6836 -17.13714,1.51676 -34.85603,0.49677 -51.31836,5.49414 -12.39805,3.76357 -23.16123,11.64828 -34.42774,18.04687 -9.38346,5.32917 -19.91208,9.34874 -27.5957,16.92578 -7.5086,7.40444 -13.33027,16.81735 -16.91601,26.73438 -5.31135,14.68947 -9.91479,31.32907 -6.0625,46.46679 4.31038,16.93788 15.6866,33.66582 30.81054,42.42579 9.52431,5.51659 21.9024,4.85081 32.83008,3.53515 23.10626,-2.78188 43.40426,-16.93294 65.66016,-23.73828 24.4052,-7.46253 49.17142,-13.93728 74.24609,-18.6875 11.67447,-2.21167 23.69918,-2.2393 35.35547,-4.54492 20.35208,-4.02569 40.6396,-10.96896 61.00983,-16.26183 8.36281,-2.17294 17.95676,-5.6596 25.12884,-6.36122 30.58696,-2.99225 61.42507,4.18898 92.14258,3.21485 8.48908,-0.26911 16.95912,-1.23292 25.35742,-2.5 24.14801,-3.64336 47.98547,-9.16955 71.78516,-14.64454 9.34208,-2.14911 18.84499,-3.87615 27.85742,-7.14257 2.60326,-0.94353 4.73104,-3.57032 7.5,-3.57032 h 30.35742 c 0,0 3.53637,-12.50148 1.42774,-18.21484 -2.6815,-7.26546 -9.39022,-13.19507 -16.42774,-16.42773 -8.57087,-3.93702 -18.7833,-2.0708 -28.21484,-2.14454 -9.89858,-0.0775 -19.75976,1.22378 -29.64258,1.78711 -11.06944,0.631 -22.13648,1.33672 -33.21484,1.78516 -17.49215,0.70809 -34.99883,1.85762 -52.5,1.42773 -20.29108,-0.49844 -36.32377,-2.2109 -55.71289,-8.214 -8.40696,-2.60289 -19.78107,-6.14517 -27.85743,-9.64146 -7.18892,-3.11211 -15.13532,-4.11729 -22.5,-6.78711 -5.86634,-2.12666 -7.306,-8.00079 -19.75653,-8.20919 -4.65766,-0.51028 -32.69526,-4.5612 -49.18878,-5.16581 -4.79029,-0.17561 -9.58321,-0.26853 -14.37695,-0.29493 z"
         transform="scale(0.26458333)"
         sodipodi:nodetypes="sssssssssssssasssssscssssssssscss" />
      <path
         style="fill:#00c1ff;fill-opacity:1;stroke:#1b1b1b;stroke-width:0.529167;stroke-linecap:butt;stroke-linejoin:miter;stroke-miterlimit:4;stroke-dasharray:none;stroke-opacity:1"
         d="m 114.71577,126.24404 c 3.17449,1.05772 7.12786,-0.35685 9.73289,-2.45684 1.7612,-1.41976 2.32148,-1.94112 3.68527,-2.55134 3.0753,-1.37602 6.5317,-1.66279 9.82738,-2.36235 3.22713,-0.68501 6.53812,-0.97254 9.73288,-1.79539 0.86812,-0.22359 1.65512,-0.83034 2.55134,-0.85044 3.11004,-0.0697 8.97694,2.55134 8.97694,2.55134 0,0 2.94264,-4.32349 2.64583,-6.70908 -0.30651,-2.46356 -2.55068,-4.33376 -4.34673,-6.04762 -1.63072,-1.55609 -3.56705,-2.873 -5.66964,-3.68527 -2.29201,-0.88544 -4.82624,-0.99195 -7.27604,-1.18118 -2.32399,-0.17951 -4.67379,-0.19027 -6.99256,0.0473 -3.83455,0.39278 -7.54661,1.57963 -11.33929,2.26786 -2.8889,0.52423 -5.7587,1.32891 -8.69345,1.41741 -3.27583,0.0988 -6.93935,-0.45301 -9.78152,-0.99456 -3.56766,-0.67978 -5.54155,-1.41694 -10.878281,0.61282"
         id="path852"
         sodipodi:nodetypes="csaaaacaaaaaaasc" />
    </g>
  </g>
</svg>
